# xmcd
#
# Track frame offsets:
#	150
#	18498
#	41169
#	62053
#	80753
#	98584
#	118944
#	136994
#	156337
#	178125
#	206674
#
# Disc length: 2952 seconds
#
# Revision: 0
# Processed by: cddbd v1.5.2PL0 Copyright (c) Steve Scherf et al.
# Submitted via: dBpowerAMP V4.0
#
DISCID=9d0b860b
DTITLE=Various Artist - Country Christmas
DYEAR=1900
DGENRE=
TTITLE0=God Rest Ye Merry Gentlemen
TTITLE1=What Child Is This?
TTITLE2=Go Tell It On The Mountain
TTITLE3=The Twelve Days of Christmas
TTITLE4=The Coventry Carol
TTITLE5=The Holly and the Ivy
TTITLE6=Angels We Have Heard On High
TTITLE7=Away in a Manger
TTITLE8=The First Noel
TTITLE9=Silent Night
TTITLE10=We Wish You a Merry Christmas
EXTD=
EXTT0=
EXTT1=
EXTT2=
EXTT3=
EXTT4=
EXTT5=
EXTT6=
EXTT7=
EXTT8=
EXTT9=
EXTT10=
PLAYORDER=
